<svg width="849" height="705" xmlns="http://www.w3.org/2000/svg"><g fill="none" fill-rule="evenodd"><path d="M822 168h-2l-8-1-23 2c-5 1-11 4-15 2-9-2-17-2-25 1-7 4-13 10-16 18l-3 7-1 2-1 5v2l-3 6-5 18v6l1 4c1 2 2 0 2-1-1-9 1-18 4-26a53 53 0 0120-24l15-8 11-5 3-1 6 2 19 5c3 0 7 0 11-2l2-1 7-4 4-4v-1h1c0-2-2-2-4-2" fill="#89C5CC"/><path d="M57 288l-5 4c-1 1-3 2-3 4-1 1 1 3 2 4 5 5 11 8 19 9 11 1 21-2 31-8 8-4 12-10 13-18 9 3 17 8 24 14l9 10 5 7 2 3c1 1 3 0 3-2l-2-3a135 135 0 00-9-13c-4-5-10-10-16-14-11-7-23-12-37-12-9 0-16 3-23 7l-13 8" fill="#DDE3E9"/><path d="M162 237c-9-9-17-18-27-26l-18-13 2 1-6-3-7-4-12-9-14-9-12-7-7-4-9-5 5 2 5 2-2-6-1-6 3 9 1 3 1 1 5 2 4 3c5 2 10 6 14 9l-3-7-1-6 4 8v4l4 3 14 10c5-9-1-20-6-27-3-6-8-11-13-15l-22-13a86 86 0 00-44-9 26 26 0 00-11 2l-3 2c-4 5-6 9-6 16 0 5 2 11 5 17 3 5 6 11 11 15l11 9c15 11 33 20 51 17a49 49 0 0020-7l4-3c1-1 4 2 5 2a423 423 0 0154 44l4 3c1 1 1 0 1-1l-4-4" fill="#C1DEE2"/><path d="M812 215l-10-1c-19 0-37 9-49 23a78 78 0 00-15 42l-1 5v3l-5 12c-4 12-7 24-5 36a174 174 0 013-22l2-6 1-1a52 52 0 010-2l3-8a61 61 0 013-8l1-1 1-2 2-3h-1l2-3a1971 1971 0 016-10l2-3v-1l14-14-2 3-4 5a89 89 0 00-15 23c-2 1-3 4-4 6l13-5a104 104 0 0027-15c6-4 11-8 15-14a57 57 0 0015-31l2-3c1-2 3-5-1-5" fill="#69A1AC"/><path d="M91 235l-4-3-3-1c-1 1 6 4 7 4m12-8l1 3a54 54 0 01-1-3m-64 13l-1-1 1-1 1-2 2-4 7-6c5-4 10-7 15-8 8-3 18-3 27-1 5 1 10 3 13 7l4 7v2c1 2 0 1 2 1a651 651 0 0118 5l4 2c1 2-1 1-2 1a27 27 0 00-7-3l-5-1-6-1-3-1h-7a93 93 0 00-16 1l-3 1h6l8-1-2 2-3 2-4 4 2-1a30 30 0 004-4l3-2 1-1h3l6 1h2l-1 2-2 6c-3 3-6 5-10 6-14 5-29 8-44 2-5-2-14-6-13-14" fill="#89C5CC"/><path d="M848 522c13 76-283 126-538 91C55 579-62 443 60 371c121-72 776 75 788 151z" opacity=".6" fill="#DDE3E9"/><g transform="translate(158 48)"><rect fill="#F2F2F2" width="159" height="302" rx="8"/><circle fill="#FFF" cx="79" cy="268" r="15"/><g transform="translate(64 16)" fill="#FFF"><circle cx="2" cy="2" r="2"/><rect x="9" width="21" height="4" rx="2"/></g><g transform="translate(14 28)"><rect fill="#FFF" width="131" height="54" rx="4"/><g transform="translate(39 16)" fill="#DDE3E9"><rect width="73" height="8.1" rx="3"/><rect y="13.5" width="49" height="8.1" rx="3"/></g><circle fill="#C5CFD6" cx="21" cy="27" r="12"/></g><g transform="translate(14 90)"><rect fill="#FFF" width="131" height="42" rx="4"/><g transform="translate(39 13)" fill="#DDE3E9"><rect width="73" height="6.3" rx="3"/><rect y="10.5" width="49" height="6.3" rx="3"/></g><circle fill="#C5CFD6" cx="21" cy="21" r="12"/></g><g transform="translate(14 140)"><rect fill="#FFF" width="131" height="42" rx="4"/><g transform="translate(39 13)" fill="#DDE3E9"><rect width="73" height="6.3" rx="3"/><rect y="10.5" width="49" height="6.3" rx="3"/></g><circle fill="#AFB9C5" cx="21" cy="21" r="12"/></g><g transform="translate(14 190)"><rect fill="#FFF" width="131" height="42" rx="4"/><g transform="translate(39 13)" fill="#DDE3E9"><rect width="73" height="6.3" rx="3"/><rect y="10.5" width="49" height="6.3" rx="3"/></g><circle fill="#C5CFD6" cx="21" cy="21" r="12"/></g></g><g transform="translate(187 79)"><g fill="#89C5CC"><path d="M12 218H8l-3 1-1 3c1 4 3 9 6 12 6 6 13 9 21 10 5 1 10 0 14-4 3 5 5 11 6 17l1 9v6l-1 3h3v-2a93 93 0 001-11c0-5-1-9-3-14-2-9-7-17-14-23-4-4-9-5-15-6l-11-1"/><path d="M33 253c-15 0-24 12-29 24-2 4-2 9-3 14v5l-1 1 1 1 3-1c6-3 10-8 14-14l5-12a41 41 0 002-11l-1-3c5-1 10-2 15 0a19 19 0 0112 13v2c1 2 3 1 3-1-1-4-3-9-6-12-4-4-10-6-15-6"/></g><rect fill="#DDE3E9" x="48" width="159" height="302" rx="8"/><circle fill="#FFF" cx="127" cy="268" r="15"/><g transform="translate(112 16)" fill="#FFF"><circle cx="2" cy="2" r="2"/><rect x="9" width="21" height="4" rx="2"/></g><g transform="translate(62 28)"><rect fill="#FFF" width="131" height="54" rx="4"/><g transform="translate(9 16)" fill="#DDE3E9"><rect width="73" height="8.1" rx="3"/><rect y="13.5" width="49" height="8.1" rx="3"/></g><g transform="translate(110 20)"><circle fill="#DDE3E9" cx="7" cy="7" r="7"/><circle fill="#F2F2F2" cx="7" cy="7" r="3"/></g></g><g transform="translate(62 90)"><rect fill="#FFF" width="131" height="42" rx="4"/><g transform="translate(39 13)" fill="#DDE3E9"><rect width="73" height="6.3" rx="3"/><rect y="10.5" width="49" height="6.3" rx="3"/></g><circle fill="#C5CFD6" cx="21" cy="21" r="12"/></g><g transform="translate(62 140)"><rect fill="#FFF" width="131" height="42" rx="4"/><g transform="translate(9 13)"><rect fill="#DDE3E9" width="73" height="6.3" rx="3"/><rect fill="#AFB9C5" y="10.5" width="49" height="6.3" rx="3"/></g><g transform="translate(110 14)"><circle fill="#DDE3E9" cx="7" cy="7" r="7"/><circle fill="#F2F2F2" cx="7" cy="7" r="3"/></g></g><g transform="translate(62 190)"><rect fill="#FFF" width="131" height="42" rx="4"/><g transform="translate(39 13)" fill="#DDE3E9"><rect width="73" height="6.3" rx="3"/><rect y="10.5" width="49" height="6.3" rx="3"/></g><circle fill="#C5CFD6" cx="21" cy="21" r="12"/></g></g><g transform="translate(348 111)"><rect fill="#F2F2F2" width="335" height="346" rx="8"/><rect fill="#FFF" x="249" y="43" width="70" height="81" rx="8"/><g transform="translate(259 58)" fill="#DDE3E9"><circle cx="25" cy="16" r="16"/><rect y="36" width="50" height="6" rx="3"/><rect x="8" y="46" width="34" height="6" rx="3"/></g><path d="M8 0h319c4 0 8 4 8 8v19H0V8c0-4 4-8 8-8z" fill="#C5CFD6"/><g transform="translate(9 10)" fill="#F2F2F2"><circle cx="4" cy="4" r="4"/><circle cx="16" cy="4" r="4"/><circle cx="28" cy="4" r="4"/></g><g transform="translate(249 132)"><rect fill="#FFF" width="70" height="194" rx="8"/><g transform="translate(18 18)"><rect fill="#DDE3E9" width="34" height="26" rx="4"/><rect fill="#AFB9C5" y="34" width="34" height="25" rx="4"/><rect fill="#DDE3E9" y="67" width="34" height="25" rx="4"/><rect fill="#DDE3E9" y="133" width="34" height="25" rx="4"/><rect fill="#C5CFD6" y="100" width="34" height="25" rx="4"/></g></g><g transform="translate(16 44)"><rect fill="#FFF" width="225" height="47" rx="4"/><g transform="translate(9 14)" fill="#DDE3E9"><rect width="167" height="7" rx="3"/><rect y="11.8" width="112.1" height="7" rx="3"/></g><g transform="translate(194 17)"><circle fill="#DDE3E9" cx="7" cy="7" r="7"/><circle fill="#F2F2F2" cx="7" cy="7" r="3"/></g></g><g transform="translate(16 99)"><rect fill="#FFF" width="225" height="39" rx="4"/><g transform="translate(9 12)" fill="#DDE3E9"><rect width="167" height="5.8" rx="2.9"/><rect y="9.8" width="112.1" height="5.8" rx="2.9"/></g><g transform="translate(194 13)"><circle fill="#DDE3E9" cx="7" cy="7" r="7"/><circle fill="#F2F2F2" cx="7" cy="7" r="3"/></g></g><g transform="translate(16 146)"><rect fill="#FFF" width="225" height="39" rx="4"/><g transform="translate(9 12)" fill="#DDE3E9"><rect width="167" height="5.8" rx="2.9"/><rect y="9.8" width="112.1" height="5.8" rx="2.9"/></g><g transform="translate(194 13)"><circle fill="#DDE3E9" cx="7" cy="7" r="7"/><circle fill="#AFB9C5" cx="7" cy="7" r="3"/></g></g><g transform="translate(16 287)"><rect fill="#FFF" width="225" height="39" rx="4"/><g transform="translate(9 12)" fill="#DDE3E9"><rect width="167" height="5.8" rx="2.9"/><rect y="9.8" width="112.1" height="5.8" rx="2.9"/></g><g transform="translate(194 13)"><circle fill="#DDE3E9" cx="7" cy="7" r="7"/><circle fill="#F2F2F2" cx="7" cy="7" r="3"/></g></g><g transform="translate(16 240)"><rect fill="#FFF" width="225" height="39" rx="4"/><g transform="translate(9 12)" fill="#DDE3E9"><rect width="167" height="5.8" rx="2.9"/><rect y="9.8" width="112.1" height="5.8" rx="2.9"/></g><g transform="translate(194 13)"><circle fill="#DDE3E9" cx="7" cy="7" r="7"/><circle fill="#F2F2F2" cx="7" cy="7" r="3"/></g></g><g transform="translate(16 193)"><rect fill="#FFF" width="225" height="39" rx="4"/><g transform="translate(9 12)" fill="#DDE3E9"><rect width="167" height="5.8" rx="2.9"/><rect y="9.8" width="112.1" height="5.8" rx="2.9"/></g><g transform="translate(194 13)"><circle fill="#DDE3E9" cx="7" cy="7" r="7"/><circle fill="#F2F2F2" cx="7" cy="7" r="3"/></g></g></g><path d="M816 299c-4-3-10-3-14-3-19 0-36 6-51 17-8 5-16 12-22 20l-10 14-3 11-2 13c0 2-1 12 2 12v1c-7 10-11 22-15 33a230 230 0 00-13 80v17c0 2 2 2 2 0l1-9v-12a274 274 0 0129-109 207 207 0 0135-45l19-14 25-14 14-6 3-1c3-2 2-4 0-5" fill="#C1DEE2"/><path d="M740 397c8 0 14 0 21 3l17 10c7 5 13 11 17 19 3 5 4 12 3 17-2 6-7 11-14 10-5 0-9-3-12-6l-10-11-10-22-5-11-4-4c-1-1-4-2-3-3-19 0-36 15-40 33l-1 5-1 6c-2 2-1-3-1-4l1-5c1-9 5-18 12-25 8-8 19-12 30-12" fill="#89C5CC"/><path d="M37 416c19 31 40 61 53 96a504 504 0 00-13-76l-7-32-4-18-1-6a1466 1466 0 0137 143l1-4a246 246 0 0126-64c3-4 9-9 11-13-13 24-17 54-25 80l-5 19c11-23 29-41 53-50-30 20-47 54-59 89v2c3-7 8-13 14-17 12-9 27-7 39 1-10-6-27-1-36 6-5 4-11 10-15 16l-4 5c-2 14-5 27-10 41v-13-1a877 877 0 001-8v-8-14l-4-13a163 163 0 00-40-66l-14-14-8-8c20 11 41 23 55 41a445 445 0 00-45-114z" fill="#DDE3E9"/><path d="M57 593c0 36 3 65 41 65s41-29 41-65" fill="#C5CFD6"/><g transform="translate(628)"><rect fill="#DDE3E9" y="32" width="6" height="25" rx="3"/><rect fill="#DDE3E9" x="14" y="16" width="6" height="41" rx="3"/><rect fill="#DDE3E9" x="28" y="8" width="6" height="49" rx="3"/><rect fill="#DDE3E9" x="42" y="16" width="6" height="41" rx="3"/><rect fill="#C5CFD6" x="56" width="6" height="57" rx="3"/></g><path d="M3 352c0-11 9-20 20-20v20L9 367c-4-4-6-9-6-15z" fill="#F2F2F2"/><path d="M22 352h20a20 20 0 01-20 20c-5 0-10-2-14-5l14-15z" fill="#AFB9C5"/><path d="M43 352c0-11-9-20-20-20v20h20zm-30-20l8 18-18-8c1-5 5-8 10-10z" fill="#C5CFD6"/><path d="M818 361a11 11 0 11-7-17v-20c-17 0-30 14-30 30a30 30 0 0052 21l-15-14z" fill="#F2F2F2"/><path d="M811 324v20c6 0 10 4 10 10h20c0-16-14-30-30-30z" fill="#AFB9C5"/><path d="M821 354c0 4-2 7-4 9l12 15c7-5 12-14 12-24h-20z" fill="#C5CFD6"/><g><path d="M578 41a8 8 0 01-14-6c0-4 3-8 8-8V12c-13 0-23 11-23 23a23 23 0 0040 16l-11-10z" fill="#F2F2F2"/><path d="M572 12v15c4 0 8 4 8 8h15c0-12-11-23-23-23z" fill="#AFB9C5"/><path d="M580 35c0 3-1 5-3 6l9 12c5-4 9-11 9-18h-15z" fill="#C5CFD6"/></g><g transform="translate(71 7)"><path d="M48 52zM48 52" fill="#C5CFD6"/><rect fill="#DDE3E9" width="95" height="63" rx="4"/><path fill="#AFB9C5" d="M36 18L8 63h56z"/><path fill="#C5CFD6" d="M64 30L39 63h49z"/><circle fill="#FFF" cx="74" cy="21" r="9"/></g><g transform="matrix(-1 0 0 1 793 477)"><path d="M71 77zM71 77" fill="#C5CFD6"/><rect fill="#DDE3E9" width="142" height="94" rx="4"/><path fill="#AFB9C5" d="M53 27L12 94h82z"/><path fill="#C5CFD6" d="M95 45L59 94h72z"/><circle fill="#FFF" cx="110.5" cy="31.5" r="13.5"/></g><g><path d="M227 369c-5-6-9-14-8-22 2-24 35-19 42-7 6 12 6 43-3 45-3 1-10-1-18-5l5 32h-27l9-43z" fill="#B28B67"/><path d="M207 339l-1-4-2-3c0-3 0-6 2-8l5-2h4l4 2c0-3 0-5 2-8 1-2 3-3 6-4l7 2 1 1 2 1 1-1 2-1c2-2 5-3 8-2l3 3 2 3h1l2-2 3-1c1 0 3 0 4 2v2a175 175 0 01-1 5v1l2 1h2l1 2 1 1v1c1 0 4-2 5 0l-1 2-1 3-5 5c2 0 3 3 1 5l-3 1-1-1-1 1-4-1-7-3-1-1h-2l-4-1-1 6-4 1h-12l12 3c2 0 1 1 0 2-2 1-2 3-3 5-2-3-5-4-9-3-3 0-5 5-3 8l5 4-2 5-2 3h-2v1h-7c-1-2-1-4 1-6-2 0-6-1-5-4-4-1-14-7-9-12-3-2-6-6-4-10 2-3 5-4 8-4" fill="#191847"/><path fill="#C5CFD6" d="M178 554h87l11 140H147z"/><path fill-opacity=".1" fill="#000" d="M178 554h27l16 140h-74z"/><path d="M364 530c9-6 25 1 25 9 0 24-22 136-23 143-1 8-14 9-14 0a744 744 0 011-112l-53 88-12-6a587 587 0 0150-122c7-11 19-7 26 0z" fill="#B28B67"/><path d="M288 634l45-106c10-17 40 4 37 14-9 22-50 95-53 102l-29-10z" fill="#1F28CF"/><path d="M286 645l-5 6-4 8 55 32c4-4 5-7 2-9l-7-5-19-27a1 1 0 00-2 0l-4 3-8-2-5-5a2 2 0 00-3-1zM349 676l-2 8 1 9h64c1-5 0-8-3-9l-9-1-30-13a1 1 0 00-1 0l-2 5c-3 2-6 2-8 2s-4 0-7-2a2 2 0 00-3 1z" fill="#E4E4E4"/><path d="M392 547c0 30-15 100-15 107h-30c4-63 6-94 5-95-2-1-80 8-103 8-34 0-48-21-49-61h67l110 21c12 2 15 12 15 20z" fill="#2B44FF"/><g><path d="M221 390l1-3 1 1 1-1 31 5c0 18 14 34 23 48 14 23 39 47 23 80-14 30-51 34-111 14 0-16 13-32 13-51 1-18 4-74 18-93z" fill="#C1DEE2"/><path d="M261 512l4-22c16 19 26 28 29 29 5 0 8-4 9-3 2 5-3 18-12 19-4 1-11-8-14-11l-16-12zm29-58c4 0 6 2 9 5 2 4 5 21 1 21s-22-7-22-11c0-5 12-6 12-10 0-3-5-5 0-5z" fill="#B28B67"/><path d="M252 528l-1 3c-49-34-49-76-35-123-11 46-6 85 36 120z" fill-opacity=".2" fill="#000"/></g><g><path d="M570 298c5-6 9-14 8-22-2-24-35-19-42-7-6 12-5 43 3 45 3 1 11-1 18-5l-5 32h27l-9-43z" fill="#B28B67"/><path d="M552 255l15-1 3-1v-3a48 48 0 014-12c4-6 8-10 14-12 6-3 13-4 20-3 7 0 14 3 21 5 6 2 13 3 20 2s12-5 18-8c6-4 12-6 19-6 7 1 13 3 18 7 5 3 10 7 12 13s2 13-2 19c-6 7-17 9-26 9-6 0-11-1-16-3-7-2-13-6-19-9l-10-4h-9l-9 6-10 2c-7 0-14-3-20-4s-11-2-17-1c-2 0-6 1-7 4 15 2 20 19 16 32-2 7-15 15-20 11-3-2-1-5 0-7 2-4 3-9-1-11s-8 3-8 3c-1 0-10-5-16-13-6 1-7-3-6-7 2-3 11-7 16-8z" fill="#191847"/></g><g><path fill="#997659" d="M597 436l-42 138-21 118h-16l22-256z"/><path d="M612 436c-3 76 1 115 1 122 1 7 10 52 31 137l-17-6c-33-78-44-118-48-129-4-10-14-51-30-124h63z" fill="#B28B67"/><path d="M644 688l2 8-2 9h-63c-2-5-1-8 3-9l8-1 30-13a1 1 0 012 0l2 5c3 2 6 2 8 2 1 0 4 0 7-2a2 2 0 013 1zM538 688l2 8-1 9h-64c-2-5-1-8 3-9l9-1 30-13a1 1 0 011 0l2 5c3 2 6 2 8 2s4 0 7-2a2 2 0 013 1z" fill="#E4E4E4"/><path fill="#69A1AC" d="M603 436l-18 71h-55l8-71z"/><path d="M613 436c6 18 7 41 3 71h-56l-15-71h68z" fill="#89C5CC"/></g><g><path d="M491 432l-27 35c-9 5-16 11-21 16-1 2-2 5 4 3s13-4 14-2-2 5 1 7c2 2 6-4 12-18l30-24-13-17zm151-49l-25 3 43 90c4 6-1 17-2 22 8 3 5-10 16-7 9 3 17 10 26 2 1-1 2-4-2-6-9-4-22-13-24-16-3-4-14-33-32-88z" fill="#B28B67"/><path d="M558 324h-10c-8 55-81 103-83 123 0 8 5 11 3 14l14 7c1-3 7 1 16-3 9-5 68-78 60-141z" fill="#DB2721"/><path d="M542 333c11 71-27 95-14 122 11 22 87 38 96 13 4-10 4-22 3-34l11 23c5 11 18 11 18 16l16-7c-2-6 5-10 1-23-18-60-49-101-93-123l-2-7c0-2-2-3-4-3l-31 7c-2 0-4 2-3 4l2 12z" fill="#FF4133"/></g></g></g></svg>